EMG
version=1
nRows=41
nColumns=17
inDegrees=no
endheader
time	_right_gast_med	_right_glut_max	_left_gast_med	_left_glut_max	_right_glut_med	_right_bic_fem	_right_rect_fem	_right_vast_lat	_right_vast_med	_right_tens_fasc_lat	_left_glut_med	_left_bic_fem	_left_rect_fem	_left_vast_lat	_left_vast_med	_left_tens_fasc_lat
      0.00000000	     -2.22742724	     -0.13538642	      0.00808281	     -0.04338633	     -0.06494877	      0.08126824	      0.01910530	      0.18861218	      0.05117708	      0.03047700	     -0.02630636	     -0.04808023	      0.01625249	      0.03531934	      0.04012955	      0.01779018
      0.01000000	      0.82104099	     -0.17177431	      0.01215258	     -0.10953447	     -0.05315832	      0.04659634	      0.03002520	      0.11668292	     -0.04234211	      0.02167323	     -0.04724343	      0.06227250	     -0.00721512	      0.01118961	      0.09904686	      0.01047511
      0.02000000	      2.30077791	     -0.14175831	     -0.01347254	     -0.08312144	     -0.03820122	     -0.01002241	      0.04256754	     -0.06603211	     -0.17990172	     -0.00369278	     -0.03774948	      0.10257940	     -0.02333532	      0.00725135	      0.16769624	     -0.00157131
      0.03000000	      1.78412604	     -0.05949479	     -0.02684151	     -0.00197811	     -0.02391729	     -0.04246590	      0.04043569	     -0.20855446	     -0.19266048	     -0.00010541	     -0.00438662	      0.03571329	     -0.02136318	      0.03335860	      0.14778681	     -0.00159067
      0.04000000	      0.95483375	      0.06835122	      0.01064844	      0.04217176	     -0.01787606	     -0.01840494	      0.03397114	     -0.24428968	     -0.09817582	      0.02417844	      0.01820678	      0.02836105	     -0.01295066	      0.03665664	     -0.08647037	      0.01765724
      0.05000000	      0.04356464	      0.10058293	     -0.02272821	      0.03629620	     -0.01535862	      0.03784067	      0.02816923	     -0.20381099	     -0.02467411	      0.02221653	      0.03724973	      0.03550365	     -0.00522848	      0.00389430	     -0.36423361	      0.01219727
      0.06000000	     -0.69068378	     -0.10292600	      0.01221092	     -0.02104887	     -0.00711197	      0.07083318	      0.00902932	     -0.13016675	     -0.01048964	      0.00093244	      0.06018541	      0.02840315	      0.04575580	     -0.03755020	     -0.27154934	     -0.03699090
      0.07000000	     -1.48988461	     -0.31499323	      0.07052431	     -0.02048751	      0.02330303	      0.05960795	     -0.00639509	     -0.04607202	     -0.03374140	     -0.02306169	      0.04700986	      0.02975633	      0.07508615	     -0.04044585	      0.07507630	     -0.05330334
      0.08000000	     -2.61330676	     -0.30647963	      0.04819726	      0.02846984	      0.04637918	      0.03663604	     -0.00309206	      0.02557240	     -0.04278759	     -0.05249210	      0.03368002	      0.03986042	     -0.00231715	      0.02352649	      0.28165868	     -0.03490354
      0.09000000	     -1.80347502	     -0.16089399	     -0.05618363	      0.03493759	      0.02585150	      0.03106664	     -0.04883466	      0.05976329	     -0.03196269	     -0.02873816	      0.00798782	      0.01293271	     -0.01858263	      0.05256858	      0.30226755	     -0.00151421
      0.10000000	     -0.42782831	     -0.06535089	      0.01568794	      0.08918427	     -0.07709767	      0.03635921	     -0.09797040	      0.06300031	     -0.02520625	      0.01691408	     -0.03138911	     -0.05040468	     -0.00639759	      0.04540860	      0.11345280	      0.03433882
      0.11000000	      0.17744495	     -0.05575768	      0.01828559	      0.07059213	     -0.21683651	      0.04054949	     -0.06017364	      0.04639072	     -0.00257222	     -0.03813720	     -0.06609126	     -0.02059973	     -0.02277073	      0.03527382	     -0.09920012	      0.03703891
      0.12000000	      0.25324214	     -0.01036410	     -0.03063306	     -0.02018286	     -0.19745226	      0.02367700	     -0.01698963	      0.02760717	      0.06423791	     -0.01397886	     -0.09489539	      0.01858623	     -0.01340602	      0.03949374	     -0.25539041	      0.03100053
      0.13000000	      0.24042565	      0.08991519	      0.07191083	     -0.09176586	     -0.07351091	     -0.00101954	     -0.00346946	      0.02175128	      0.10052135	      0.04193215	     -0.01622361	      0.01727233	      0.01126823	      0.05634209	     -0.27135700	     -0.01315670
      0.14000000	      0.25789177	      0.12657088	     -0.00392856	     -0.05366481	     -0.01243904	     -0.00142866	     -0.00219981	      0.02738286	      0.08044651	      0.05718013	      0.00797721	      0.00583307	      0.04960927	     -0.03615618	      0.12018806	      0.08217609
      0.15000000	      0.16269080	     -0.03148666	      0.00244671	      0.15621753	     -0.01656836	      0.00139496	      0.01895675	      0.04662954	      0.05849289	      0.06449771	     -0.04681283	     -0.07298474	      0.00532645	      0.03155499	      0.32454693	      0.02835363
      0.16000000	      0.23118843	      0.13432196	      0.09450863	      0.01457778	      0.02566499	     -0.01249282	      0.05286539	      0.06969355	      0.04923129	      0.02513164	      0.00163258	     -0.11683068	      0.02934310	      0.08760649	      0.17761269	     -0.08105663
      0.17000000	      1.17929947	      0.61733276	      0.04095876	     -0.16124637	      0.15313262	     -0.01579824	      0.04770412	      0.08372013	      0.04186135	     -0.01428333	      0.07301252	      0.04763507	      0.06201255	      0.01469908	      0.02451858	      0.01167860
      0.18000000	      0.97054350	      0.27725178	     -0.08926454	      0.07535060	      0.19044411	      0.01824185	      0.02237438	      0.07708816	      0.03399177	     -0.00364634	      0.12913135	      0.24247770	      0.01174770	      0.13420266	     -0.12754174	      0.01170037
      0.19000000	     -1.72633719	     -0.09070171	     -0.09940784	      0.14528278	      0.13750881	      0.05442782	      0.01408570	      0.05245679	     -0.01341131	      0.01296614	      0.11427819	      0.18253806	     -0.02075812	      0.13717669	     -0.02186179	      0.05218171
      0.20000000	     -2.15894103	      0.09744731	      0.01531030	      0.02533152	      0.13821533	      0.06343252	      0.02282681	      0.02206351	     -0.09191011	      0.03209022	      0.01576202	      0.03557003	     -0.07682813	      0.00676685	      0.10601097	      0.10608806
      0.21000000	     -1.15442193	     -0.02394637	      0.06712942	      0.00507951	      0.16246873	      0.06212028	      0.02790930	      0.02210374	     -0.09848832	      0.03055311	     -0.10158271	     -0.02818379	     -0.08848628	     -0.06429986	      0.01285902	      0.00751247
      0.22000000	     -0.15606622	     -0.10423838	     -0.00925655	      0.09061822	      0.09849840	      0.06422934	      0.02923542	      0.05692827	     -0.06625572	      0.00044594	     -0.11715570	     -0.06441136	     -0.05469595	     -0.08213365	      0.04761095	     -0.06431419
      0.23000000	      1.04268181	      0.13375373	     -0.05162840	      0.10515942	     -0.00475788	      0.04577576	      0.03072096	      0.07009668	     -0.00677527	     -0.02816457	     -0.03945887	     -0.08000594	     -0.00869136	     -0.05543156	      0.18596748	     -0.01313468
      0.24000000	      1.27869427	      0.30039304	     -0.02016160	     -0.10718959	     -0.04310128	     -0.01043170	      0.02562909	      0.02916511	      0.05226109	     -0.02528639	      0.00784190	     -0.08400110	      0.03729727	     -0.00581674	      0.07970979	      0.01562869
      0.25000000	      0.67872274	      0.20410126	      0.05258516	     -0.28538805	     -0.02736726	     -0.05171376	      0.01503549	     -0.02765319	      0.08405939	      0.01261768	      0.01127075	     -0.05618876	      0.05718244	      0.01400014	     -0.10757735	     -0.00608114
      0.26000000	      0.42399773	     -0.11698649	      0.04322454	     -0.15724954	     -0.02509458	     -0.07493659	      0.00389098	     -0.04750460	      0.11240774	      0.04309446	      0.01378150	     -0.00904172	      0.04682240	     -0.00511193	     -0.12265156	      0.00229874
      0.27000000	      0.36250359	     -0.31576449	      0.01558593	      0.04133296	     -0.02782166	     -0.08457930	      0.00479313	     -0.05345821	      0.13248155	      0.01873377	      0.02376072	      0.02578675	      0.02977229	     -0.02717880	     -0.03301178	      0.03169114
      0.28000000	      0.27631730	     -0.31433025	      0.01493517	      0.14681864	     -0.01113470	     -0.03371590	     -0.00277113	     -0.06359738	      0.12828697	     -0.02666110	      0.02671776	      0.07556650	      0.01641362	     -0.03659724	      0.03729162	      0.04042806
      0.29000000	      0.19184244	     -0.22645909	     -0.00354886	      0.07930755	      0.02095599	     -0.01107097	     -0.01984328	     -0.05627291	      0.06301700	     -0.04619303	      0.02709407	      0.06464085	      0.03550160	     -0.01880164	      0.08274400	      0.04731513
      0.30000000	      0.09998591	     -0.11169331	     -0.02447330	     -0.06819952	      0.05437149	     -0.08991370	     -0.01948405	     -0.04962599	     -0.02385282	     -0.04163548	      0.02229382	     -0.02853552	      0.05867353	      0.01398265	      0.09526044	      0.03726750
      0.31000000	      0.04276880	     -0.04834234	     -0.02616007	     -0.02089291	      0.07178822	     -0.10964572	      0.00132051	     -0.02294081	     -0.08181983	     -0.01607691	      0.00732991	     -0.03332122	      0.02906091	      0.02586350	      0.06483085	     -0.01933089
      0.32000000	      0.75061065	     -0.05142660	     -0.01400164	      0.10638224	      0.03705632	      0.00214942	      0.01808128	      0.03056883	     -0.09030509	      0.01721119	     -0.00822174	      0.03887428	      0.00868827	      0.01599429	      0.03212055	     -0.06661073
      0.33000000	      1.43273640	     -0.04222774	     -0.00572603	      0.16780603	     -0.00991839	      0.10720832	      0.01948268	      0.04796480	     -0.07517882	      0.03342712	      0.00262851	      0.04988058	      0.03563296	      0.01238133	      0.00339444	     -0.03561514
      0.34000000	     -0.97263235	      0.00717351	      0.00895636	      0.19479176	     -0.01874926	      0.11042356	      0.01874194	      0.03609856	     -0.02668241	      0.03258553	      0.01828147	     -0.01299209	      0.04297439	     -0.00248210	     -0.13399659	     -0.01000131
      0.35000000	     -1.71181345	      0.03566584	      0.02062784	      0.13124153	     -0.01021006	      0.00752718	      0.01581154	      0.03286388	      0.03579854	      0.02568952	      0.02551572	     -0.05081752	      0.01958289	     -0.02610696	     -0.32241112	     -0.03537896
      0.36000000	      1.46646774	      0.03806423	      0.02450114	      0.00983435	     -0.01280082	      0.12103817	      0.00088152	      0.03953632	      0.09538977	      0.03558325	      0.03257191	     -0.04491226	     -0.00068477	     -0.00823625	     -0.21423222	     -0.05364440
      0.37000000	      2.57837629	      0.03714884	      0.02502898	     -0.05975559	     -0.02360695	      0.15741688	     -0.02059764	      0.00545159	      0.04281683	      0.05057216	      0.02845803	     -0.05114787	     -0.02264667	      0.01797079	      0.08326466	     -0.04421756
      0.38000000	      1.85612619	      0.04494407	      0.01853755	     -0.06604914	     -0.01823398	      0.01611079	     -0.01296817	     -0.03879556	     -0.34222993	      0.04354599	      0.02827302	     -0.03880143	     -0.03290588	      0.00851883	      0.17265856	      0.01319280
      0.39000000	      1.26470470	      0.04431440	      0.01346242	     -0.03668552	      0.01620791	     -0.10419317	      0.08504311	     -0.02816743	     -0.78846353	     -0.01805970	      0.03536874	      0.03811950	     -0.01596892	     -0.00390347	      0.09710044	      0.07662874
      0.40000000	      0.72978741	      0.02586775	      0.01260775	     -0.00605406	      0.02487071	      0.00460555	      0.13818891	      0.06628506	     -0.64753568	     -0.09693476	      0.02258264	      0.11909474	     -0.01462257	      0.00423643	      0.09901115	      0.05461366
